<svg class="svg-icon" style="width: 1.3564453125em; height: 1em;vertical-align: middle;fill: currentColor;overflow: hidden;" viewBox="0 0 1389 1024" version="1.1" xmlns="http://www.w3.org/2000/svg"><path d="M1232.8797879 526.57404266l-1.8669254 9.51529835-0.60223482 1.3249149-0.24089309 0.72268095a32.52063894 32.52063894 0 0 1-2.58960635 6.50412762l-0.18067045 0.3011174-0.12044695 0.30111658a682.03007063 682.03007063 0 0 1-234.50994197 281.48419886c-102.01844944 70.28071491-216.26225051 107.49877954-330.2049342 107.49877953-232.52256958 0-459.98637341-157.36375937-565.85912063-391.63280822a47.51626739 47.51626739 0 0 1-1.32491492-3.61340469l-0.18067044-0.66245747-0.2408931-0.60223398a27.28120276 27.28120276 0 0 1-1.44536188-4.09519171l-0.30111739-1.44536105a57.81446933 57.81446933 0 0 1-1.14424448-6.92569198v-1.14424448l-0.30111657-0.90335138a147.18600357 147.18600357 0 0 1-1.08402183-8.19038342 28.96745857 28.96745857 0 0 1 0-5.60077625s0.42156354-4.33608481 0.96357486-8.25060691l0.18066963-0.06022347 0.42156436-3.37251078 0.06022348-0.42156353v-0.60223398l0.24089309-1.86692542c0.06022348-0.42156354 0.36134006-2.83050027 1.44536187-6.14278756l0.18067045-0.48178702 0.60223397-1.50558535 0.12044696-0.42156436 0.12044697-0.42156355a26.25740525 26.25740525 0 0 1 2.04759586-5.23943618l0.1806696-0.36134006C202.69820822 246.95677004 429.92111814 90.19524465 662.56413467 90.19524465c232.70324002 0 460.16704386 157.30353589 565.91934412 391.51236045l0.06022348 0.18067044c0.5420105 1.14424447 1.20446797 3.13161685 1.3851384 3.91452127l0.12044695 0.42156437 0.48178702 1.08402099a61.36765054 61.36765054 0 0 1 2.52938288 12.04468122l0.18067044 1.92714889 0.42156436 0.90335138c0.24089392 1.44536188 0.90335137 5.35988315 0.90335056 10.11753149 0 5.78144668-0.96357486 10.7197663-1.68625499 14.27294751z m-56.67022485-16.26031988a10.23797928 10.23797928 0 0 1-0.24089391-1.68625498l-0.36134006-2.52938287-0.36134089-0.8431279-0.18067044-0.60223398-0.06022265-0.18067044-0.18067045-0.66245745-0.48178701-1.14424449C1077.5034009 290.98007889 871.84046973 148.73239493 662.56413467 148.73239493c-195.00338754 0-388.26029746 123.5182055-492.32634192 314.78774222l-11.68334116 22.88489364h-0.12044613l-2.7702768 5.60077707-5.11899004 10.84021326-0.2408931 0.48178701-0.12044696 0.48178703-0.42156354 1.26469144-0.12044695 0.36134087-0.36134089 1.084021-0.12044696 1.20446796a3.01116989 3.01116989 0 0 1-0.18066962 1.02379833l-0.36134088 1.32491492v2.40893591l0.12044696 0.60223399 0.24089392 1.92714889 0.12044696 0.78290441 0.12044615 1.44536188 0.48178784 1.32491492a7.58814944 7.58814944 0 0 1 0.18066961 0.60223398l0.36134088 1.14424447 0.18067044 0.54201133 0.2408931 0.54201049a635.4171546 635.4171546 0 0 0 214.03398422 256.67215549c92.20203452 63.89703342 195.18405799 97.62214114 297.86496487 97.62214032 209.09566461 0 414.81881928-142.24768478 511.83872561-353.99317923l0.48178785-0.96357403 0.2408931-1.08402182 0.12044696-0.5420105 0.48178701-1.44536188 0.12044697-0.48178702 0.06022348-0.48178701 0.12044696-0.84312791 0.90335138-2.83050027-0.72268095-2.71005331z m-513.64542838 188.25836682C561.08769657 698.5720896 478.46118305 614.98200205 478.46118305 512.18064902c0-102.74113037 82.62651269-186.3312171 184.10295162-186.33121793 101.53666241 0 184.10295163 83.59008756 184.10295163 186.33121793 0 102.80135385-82.56628921 186.39144058-184.10295163 186.39144058z m0-314.18550825c-69.61825745 0-126.2884823 57.33268232-126.28848147 127.79406767 0 70.52160801 56.67022485 127.85429032 126.28848147 127.85429031 69.61825745 0 126.2884823-57.33268232 126.2884823-127.85429031 0-70.46138452-56.67022485-127.79406682-126.2884823-127.79406767z"  /></svg>